<svg width="16" height="22" viewBox="0 0 16 22" fill="none" xmlns="http://www.w3.org/2000/svg">
<path d="M8 8.33333V11M8 13.6667H8.00667M2 11C2 11.7879 2.15519 12.5681 2.45672 13.2961C2.75825 14.0241 3.20021 14.6855 3.75736 15.2426C4.31451 15.7998 4.97595 16.2417 5.7039 16.5433C6.43185 16.8448 7.21207 17 8 17C8.78793 17 9.56815 16.8448 10.2961 16.5433C11.0241 16.2417 11.6855 15.7998 12.2426 15.2426C12.7998 14.6855 13.2417 14.0241 13.5433 13.2961C13.8448 12.5681 14 11.7879 14 11C14 9.4087 13.3679 7.88258 12.2426 6.75736C11.1174 5.63214 9.5913 5 8 5C6.4087 5 4.88258 5.63214 3.75736 6.75736C2.63214 7.88258 2 9.4087 2 11Z" stroke="#DF1C41" stroke-width="1.5" stroke-linecap="round" stroke-linejoin="round"/>
</svg>
